# xmcd
#
# Track frame offsets: 
#        150
#        11777
#        28648
#        42176
#        56141
#        70317
#        84914
#        107337
#        119986
#        137117
#        150904
#        165208
#        180704
#        202549
#        218937
#
# Disc length: 3272 seconds
#
# Revision: 1
# Processed by: cddbd v1.5.2PL0 Copyright (c) Steve Scherf et al.
# Submitted via: ExactAudioCopyFreeDBPlugin 1.0
#
DISCID=c10cc60f
DTITLE=Klarkas - Kitoks
DYEAR=2006
DGENRE=Country
TTITLE0=Sugrizimu iliuzijos
TTITLE1=Mano 30 vasaru
TTITLE2=Amzinas ratas
TTITLE3=Bel canto
TTITLE4=Nezinau
TTITLE5=Balade apie karsta meile
TTITLE6=Nemune ledai
TTITLE7=Nors ir sudetinga
TTITLE8=Varpai
TTITLE9=Gal
TTITLE10=Brolau
TTITLE11=Pelenai
TTITLE12=Viena nakti
TTITLE13=Miestas
TTITLE14=Pametes kelia
EXTD=
EXTT0=
EXTT1=
EXTT2=
EXTT3=
EXTT4=
EXTT5=
EXTT6=
EXTT7=
EXTT8=
EXTT9=
EXTT10=
EXTT11=
EXTT12=
EXTT13=
EXTT14=
PLAYORDER=
